<svg id="Layer_1" data-name="Layer 1" xmlns="http://www.w3.org/2000/svg" viewBox="0 0 82 82"><defs><style>.cls-1{fill:#efe0da;}.cls-2{fill:#444c57;}.cls-3{fill:#63768a;}</style></defs><path class="cls-1" d="M80.78,21.16a32.59,32.59,0,0,0-1-5.13,27.11,27.11,0,0,0-2.43-5.57,19.23,19.23,0,0,0-5-5.63,19.59,19.59,0,0,0-8-3.65,27.74,27.74,0,0,0-5.3-.66L57.6.5a44.24,44.24,0,0,0-8.5.82,49.26,49.26,0,0,0-8.69,2.55,65,65,0,0,0-25.67,18A40.24,40.24,0,0,0,10,28.68,53.75,53.75,0,0,0,3.7,41.26,46.22,46.22,0,0,0,1,55.84a37.05,37.05,0,0,0,.21,4.69,31.49,31.49,0,0,0,1,5.14,26.58,26.58,0,0,0,2.35,5.6A19.14,19.14,0,0,0,9.38,77a19.45,19.45,0,0,0,7.95,3.76,27.6,27.6,0,0,0,5.29.72c.49,0,1,0,1.45,0a44.1,44.1,0,0,0,8.51-.7l.2,0a19.38,19.38,0,0,0,2.84-.47,24.32,24.32,0,0,0,3.72-1.14c.45-.18.89-.38,1.34-.57l.62-.22.61-.25.15,0a1.31,1.31,0,0,1,.27,0c.12,0,.26.22.41.54s.26.36.39.36h.22a1.35,1.35,0,0,0,.7-.21,1,1,0,0,0,.58-.92,2,2,0,0,1,0-.23,1.38,1.38,0,0,1,.25-.8,65,65,0,0,0,10.7-5.94A65.55,65.55,0,0,0,67.2,60.66a39.49,39.49,0,0,0,5.86-8.55,53.09,53.09,0,0,0,5.43-11.64,46.75,46.75,0,0,0,2.05-8.37,50.28,50.28,0,0,0,.51-6.25A41.23,41.23,0,0,0,80.78,21.16Z"/><path class="cls-2" d="M14.12,42.83H18V57.14H14.56l-.14-1.21h-.05a5,5,0,0,1-3.75,1.46c-2.81,0-4.43-2.07-4.43-5.54v-9H10v9.05c0,1.7.64,2.46,1.9,2.46a2.64,2.64,0,0,0,2.19-1.07Z"/><path class="cls-2" d="M28.11,45.69H25.17V52.8a1.5,1.5,0,0,0,1.63,1.71,3.75,3.75,0,0,0,1.09-.17l.28,2.38a6.19,6.19,0,0,1-2.8.64c-2.91,0-4-1.65-4-4.73V45.88l-1.63-.5V42.89l1.85-.14,1-3.9h2.63v4h2.94Z"/><path class="cls-2" d="M41.41,57.14H37.58v-9c0-1.82-.65-2.44-1.62-2.44A2.11,2.11,0,0,0,34.11,47V57.14H30.24V42.83h3.42v1.4h.05a4.35,4.35,0,0,1,3.5-1.65,3.55,3.55,0,0,1,3.31,1.9,4.75,4.75,0,0,1,3.86-1.9c2.77,0,4.34,1.71,4.34,5.57v9H44.86v-9c0-1.62-.51-2.44-1.68-2.44s-1.77.68-1.77,2.44Z"/><path class="cls-2" d="M62,58.43V61H49.9v-2.6Z"/><path class="cls-3" d="M51.25,10.65A12.89,12.89,0,1,0,61.56,33.16l-9.75-9.75a1.86,1.86,0,0,1-.56-1.34V10.65Zm1.89,26.89A14.14,14.14,0,0,1,51.81,9.33a.68.68,0,0,1,.48.16.63.63,0,0,1,.2.46V22.08a.66.66,0,0,0,.19.46L62.89,32.75a.63.63,0,0,1,.19.44.6.6,0,0,1-.19.44A14.09,14.09,0,0,1,53.14,37.54Z"/><path class="cls-2" d="M56,10.21V20.84l9,9a12.89,12.89,0,0,0-9-19.63Z"/><path class="cls-2" d="M55.43,8.89a.62.62,0,0,0-.68.62V21.1a.6.6,0,0,0,.18.44l9.71,9.71a.62.62,0,0,0,.94-.08A14.11,14.11,0,0,0,55.43,8.89Zm9.56,21-9-9V10.21a12.89,12.89,0,0,1,9,19.63Z"/><path class="cls-3" d="M51.25,22.07V10.65a12.89,12.89,0,1,0,10.3,22.51L51.8,23.41A1.85,1.85,0,0,1,51.25,22.07Z"/><path class="cls-3" d="M62.89,32.74,52.68,22.54a.68.68,0,0,1-.19-.46V10a.62.62,0,0,0-.68-.62,14.14,14.14,0,1,0,11.07,24.3A.62.62,0,0,0,62.89,32.74Zm-9.75,3.55a12.89,12.89,0,0,1-1.89-25.64V22.07a1.85,1.85,0,0,0,.55,1.34l9.75,9.75A12.79,12.79,0,0,1,53.14,36.29Z"/></svg>