<svg id="Layer_1" data-name="Layer 1" xmlns="http://www.w3.org/2000/svg" viewBox="0 0 82 82"><path d="M13,32.71h5.51V53.15H13.61l-.2-1.72h-.08A7.14,7.14,0,0,1,8,53.51c-4,0-6.32-3-6.32-7.92V32.71H7.13V45.63c0,2.44.92,3.52,2.72,3.52A3.76,3.76,0,0,0,13,47.63Z"/><path d="M33,36.79h-4.2V47a2.14,2.14,0,0,0,2.32,2.44,5.28,5.28,0,0,0,1.56-.24l.4,3.4a8.81,8.81,0,0,1-4,.92c-4.16,0-5.76-2.36-5.76-6.76V37.07L21,36.35V32.79l2.64-.2L25,27h3.76v5.68H33Z"/><path d="M52,53.15H46.49V40.35c0-2.6-.92-3.48-2.32-3.48a3,3,0,0,0-2.64,1.84V53.15H36V32.71h4.88v2H41a6.2,6.2,0,0,1,5-2.36,5.06,5.06,0,0,1,4.71,2.72,6.78,6.78,0,0,1,5.52-2.72c4,0,6.2,2.44,6.2,8V53.15H56.88V40.35c0-2.32-.72-3.48-2.4-3.48-1.48,0-2.52,1-2.52,3.48Z"/><path d="M81.32,55V58.7H64.09V55Z"/></svg>